# xmcd
#
# Track frame offsets:
#	182
#	18565
#	36437
#	57052
#	73177
#	86245
#	103340
#	122467
#	143210
#	157637
#	174997
#	192787
#	214830
#	232030
#	254002
#
# Disc length: 3602 seconds
#
# Revision: 1
# Processed by: cddbd v1.5.2PL0 Copyright (c) Steve Scherf et al.
# Submitted via: audiograbber 1.83.01
#
DISCID=d60e100f
DTITLE=Big Mama's Kitchen - BIG MAMA'S KITCHEN - Fast Food Fat Music
DYEAR=1995
DGENRE=Blues
TTITLE0=Red (Still Fall For Him)
TTITLE1=Jump Into My Fire
TTITLE2=That Boy's Got The Blues
TTITLE3=Let's Make Love
TTITLE4=99 LBS
TTITLE5=Money Honey Or Honey Hush
TTITLE6=Streetlight
TTITLE7=Next To You
TTITLE8=How Strong Is A Woman
TTITLE9=Hey Baby
TTITLE10=Love To Burn
TTITLE11=Lost In Love
TTITLE12=Ain't No Sunshine
TTITLE13=Funky Cookin'
TTITLE14=Who's Making Love
EXTD=
EXTT0=
EXTT1=
EXTT2=
EXTT3=
EXTT4=
EXTT5=
EXTT6=
EXTT7=
EXTT8=
EXTT9=
EXTT10=
EXTT11=
EXTT12=
EXTT13=
EXTT14=
PLAYORDER=
